REM DIRINDEX 1\2,1\3,1\4,1\5,1\6
REM DIRNAME cjc030,folder01,folder02,folder03,folder04,folder05
TITLE ""
FILE "Disc3Track30.mp3" MP3
  TRACK 01 AUDIO
    TITLE "3:cjc030_04933"
    INDEX 01 00:00:00
  TRACK 02 AUDIO
    TITLE "0:"
    INDEX 01 00:00:74
  TRACK 03 AUDIO
    TITLE "4:cjc030_04934"
    INDEX 01 00:01:07
  TRACK 04 AUDIO
    TITLE "0:"
    INDEX 01 00:05:24
  TRACK 05 AUDIO
    TITLE "5:cjc030_04935"
    INDEX 01 00:05:32
  TRACK 06 AUDIO
    TITLE "0:"
    INDEX 01 00:06:39
  TRACK 07 AUDIO
    TITLE "6:cjc030_04936"
    INDEX 01 00:06:51
  TRACK 08 AUDIO
    TITLE "0:"
    INDEX 01 00:09:42
  TRACK 09 AUDIO
    TITLE "3:cjc030_04937"
    INDEX 01 00:10:16
  TRACK 10 AUDIO
    TITLE "0:"
    INDEX 01 00:11:42
  TRACK 11 AUDIO
    TITLE "4:cjc030_04938"
    INDEX 01 00:11:52
  TRACK 12 AUDIO
    TITLE "0:"
    INDEX 01 00:13:69
  TRACK 13 AUDIO
    TITLE "5:cjc030_04939"
    INDEX 01 00:14:00
  TRACK 14 AUDIO
    TITLE "0:"
    INDEX 01 00:15:15
  TRACK 15 AUDIO
    TITLE "6:cjc030_04940"
    INDEX 01 00:15:21
  TRACK 16 AUDIO
    TITLE "0:"
    INDEX 01 00:18:54
  TRACK 17 AUDIO
    TITLE "3:cjc030_04941"
    INDEX 01 00:19:28
  TRACK 18 AUDIO
    TITLE "0:"
    INDEX 01 00:21:17
  TRACK 19 AUDIO
    TITLE "4:cjc030_04942"
    INDEX 01 00:21:27
  TRACK 20 AUDIO
    TITLE "0:"
    INDEX 01 00:22:62
  TRACK 21 AUDIO
    TITLE "5:cjc030_04943"
    INDEX 01 00:22:64
  TRACK 22 AUDIO
    TITLE "0:"
    INDEX 01 00:24:43
  TRACK 23 AUDIO
    TITLE "6:cjc030_04944"
    INDEX 01 00:24:51
  TRACK 24 AUDIO
    TITLE "0:"
    INDEX 01 00:29:60
  TRACK 25 AUDIO
    TITLE "3:cjc030_04945"
    INDEX 01 00:30:34
  TRACK 26 AUDIO
    TITLE "0:"
    INDEX 01 00:31:51
  TRACK 27 AUDIO
    TITLE "4:cjc030_04946"
    INDEX 01 00:31:57
  TRACK 28 AUDIO
    TITLE "0:"
    INDEX 01 00:32:64
  TRACK 29 AUDIO
    TITLE "5:cjc030_04947"
    INDEX 01 00:32:74
  TRACK 30 AUDIO
    TITLE "0:"
    INDEX 01 00:34:16
  TRACK 31 AUDIO
    TITLE "6:cjc030_04948"
    INDEX 01 00:34:28
  TRACK 32 AUDIO
    TITLE "0:"
    INDEX 01 00:38:73
  TRACK 33 AUDIO
    TITLE "3:cjc030_04949"
    INDEX 01 00:39:47
  TRACK 34 AUDIO
    TITLE "0:"
    INDEX 01 00:40:66
  TRACK 35 AUDIO
    TITLE "4:cjc030_04950"
    INDEX 01 00:41:00
  TRACK 36 AUDIO
    TITLE "0:"
    INDEX 01 00:42:59
  TRACK 37 AUDIO
    TITLE "5:cjc030_04951"
    INDEX 01 00:42:66
  TRACK 38 AUDIO
    TITLE "0:"
    INDEX 01 00:44:09
  TRACK 39 AUDIO
    TITLE "3:cjc030_04952"
    INDEX 01 00:44:60
  TRACK 40 AUDIO
    TITLE "0:"
    INDEX 01 00:45:67
  TRACK 41 AUDIO
    TITLE "4:cjc030_04953"
    INDEX 01 00:45:73
  TRACK 42 AUDIO
    TITLE "0:"
    INDEX 01 00:48:10
  TRACK 43 AUDIO
    TITLE "5:cjc030_04954"
    INDEX 01 00:48:18
  TRACK 44 AUDIO
    TITLE "0:"
    INDEX 01 00:49:23
  TRACK 45 AUDIO
    TITLE "6:cjc030_04955"
    INDEX 01 00:49:35
  TRACK 46 AUDIO
    TITLE "0:"
    INDEX 01 00:52:24
  TRACK 47 AUDIO
    TITLE "3:cjc030_04956"
    INDEX 01 00:53:02
  TRACK 48 AUDIO
    TITLE "0:"
    INDEX 01 00:54:21
  TRACK 49 AUDIO
    TITLE "4:cjc030_04957"
    INDEX 01 00:54:27
  TRACK 50 AUDIO
    TITLE "0:"
    INDEX 01 00:56:10
  TRACK 51 AUDIO
    TITLE "5:cjc030_04958"
    INDEX 01 00:56:18
  TRACK 52 AUDIO
    TITLE "0:"
    INDEX 01 00:57:37
  TRACK 53 AUDIO
    TITLE "3:cjc030_04959"
    INDEX 01 00:58:22
  TRACK 54 AUDIO
    TITLE "0:"
    INDEX 01 00:59:38
  TRACK 55 AUDIO
    TITLE "4:cjc030_04960"
    INDEX 01 00:59:45
  TRACK 56 AUDIO
    TITLE "0:"
    INDEX 01 01:02:16
  TRACK 57 AUDIO
    TITLE "5:cjc030_04961"
    INDEX 01 01:02:24
  TRACK 58 AUDIO
    TITLE "0:"
    INDEX 01 01:03:43
  TRACK 59 AUDIO
    TITLE "6:cjc030_04962"
    INDEX 01 01:03:55
  TRACK 60 AUDIO
    TITLE "0:"
    INDEX 01 01:08:48
